<?xml version="1.0" encoding="UTF-8"?>
<svg version="1.1" xmlns="http://www.w3.org/2000/svg" width="130" height="130">
<path d="M0 0 C42.9 0 85.8 0 130 0 C130 42.9 130 85.8 130 130 C87.1 130 44.2 130 0 130 C0 87.1 0 44.2 0 0 Z " fill="#FEFEFE" transform="translate(0,0)"/>
<path d="M0 0 C3.05232139 1.15906221 4.81925568 2.02253147 7.07421875 4.33984375 C7.64914063 4.89929688 8.2240625 5.45875 8.81640625 6.03515625 C10.9878693 9.45797089 11.50206958 11.09524273 11.19921875 15.21484375 C8.46605461 18.95890421 5.15354765 22.00910555 1.76171875 25.15234375 C0.85099609 26.02697266 -0.05972656 26.90160156 -0.99804688 27.80273438 C-3.2487387 29.95915638 -5.5159007 32.09477633 -7.80078125 34.21484375 C-5.87734185 38.27227188 -3.31231024 40.94370331 -0.1640625 44.1171875 C1.19921875 46.21484375 1.19921875 46.21484375 1.03125 48.84375 C0.19921875 51.21484375 0.19921875 51.21484375 -1.80078125 53.21484375 C-4.56238522 53.42695575 -7.22116177 53.5188145 -9.984375 53.515625 C-10.79568375 53.51991013 -11.60699249 53.52419525 -12.44288635 53.52861023 C-14.1602383 53.53435775 -15.8776146 53.53485069 -17.5949707 53.53051758 C-20.22454345 53.52736025 -22.85298856 53.55080123 -25.48242188 53.57617188 C-27.14973816 53.57844507 -28.81705748 53.57914827 -30.484375 53.578125 C-31.27194687 53.58733475 -32.05951874 53.59654449 -32.87095642 53.60603333 C-35.76030591 53.58151691 -38.18603501 53.52356961 -40.79785156 52.21191406 C-42.45164409 48.91882183 -42.20618033 45.50014526 -42.1640625 41.8984375 C-42.164561 41.08617203 -42.16505951 40.27390656 -42.16557312 39.43702698 C-42.16323408 37.72142081 -42.15351553 36.00581111 -42.13696289 34.2902832 C-42.11333837 31.6587064 -42.11640687 29.02814049 -42.12304688 26.39648438 C-42.11747115 24.73046269 -42.11036193 23.06444528 -42.1015625 21.3984375 C-42.10247391 20.6088414 -42.10338531 19.8192453 -42.10432434 19.00572205 C-42.03181917 13.44588167 -42.03181917 13.44588167 -39.80078125 11.21484375 C-36.67578125 10.58984375 -36.67578125 10.58984375 -32.80078125 11.21484375 C-29.80889191 13.60626664 -27.29355805 16.31415802 -24.80078125 19.21484375 C-21.42602641 17.76945729 -19.40309256 15.96527531 -16.9375 13.265625 C-16.21498047 12.50056641 -15.49246094 11.73550781 -14.74804688 10.94726562 C-13.24110718 9.33352467 -11.74623907 7.70842626 -10.26367188 6.07226562 C-4.72386728 0.2670223 -4.72386728 0.2670223 0 0 Z " fill="#F97704" transform="translate(110.80078125,8.78515625)"/>
<path d="M0 0 C1.18154663 -0.00287018 1.18154663 -0.00287018 2.38696289 -0.00579834 C4.05127278 -0.00715847 5.71559334 -0.00347399 7.37988281 0.00488281 C9.92797669 0.015585 12.47536556 0.00498199 15.0234375 -0.0078125 C16.64062656 -0.00649087 18.25781517 -0.00392842 19.875 0 C21.01884155 -0.00607269 21.01884155 -0.00607269 22.18579102 -0.01226807 C25.97248674 0.02131563 27.70898266 0.1132801 30.9375 2.265625 C31.22909149 5.15056431 31.33340537 7.81750437 31.30078125 10.703125 C31.30152901 11.9569397 31.30152901 11.9569397 31.30229187 13.23608398 C31.29994959 15.00474421 31.29021197 16.77340766 31.27368164 18.54199219 C31.25009361 21.25485932 31.25311867 23.96674395 31.25976562 26.6796875 C31.25418889 28.39583921 31.24707904 30.11198678 31.23828125 31.828125 C31.23964836 33.0500354 31.23964836 33.0500354 31.24104309 34.29663086 C31.16852158 40.03460342 31.16852158 40.03460342 28.9375 42.265625 C26.3125 42.890625 26.3125 42.890625 22.9375 42.265625 C20.724163 40.27787811 18.79517527 38.18277366 16.8671875 35.91796875 C16.23039062 35.37269531 15.59359375 34.82742187 14.9375 34.265625 C11.08557655 34.56476427 9.34260152 36.56999966 6.78515625 39.30078125 C6.00849609 40.10966797 5.23183594 40.91855469 4.43164062 41.75195312 C2.81043305 43.46952163 1.1932373 45.19088576 -0.41992188 46.91601562 C-1.19787109 47.72361328 -1.97582031 48.53121094 -2.77734375 49.36328125 C-3.47980225 50.11101807 -4.18226074 50.85875488 -4.90600586 51.62915039 C-7.0625 53.265625 -7.0625 53.265625 -9.66308594 53.63525391 C-13.27964503 53.07812423 -14.8430096 51.14762637 -17.375 48.578125 C-18.25800781 47.70800781 -19.14101563 46.83789062 -20.05078125 45.94140625 C-22.0625 43.265625 -22.0625 43.265625 -22.45019531 40.87988281 C-21.9222985 37.32023605 -20.48924641 36.19058836 -17.87109375 33.76171875 C-17.00935547 32.93865234 -16.14761719 32.11558594 -15.25976562 31.26757812 C-14.34904297 30.42130859 -13.43832031 29.57503906 -12.5 28.703125 C-10.69592768 27.02618956 -8.90232576 25.33789539 -7.12109375 23.63671875 C-6.31986084 22.89349365 -5.51862793 22.15026855 -4.69311523 21.38452148 C-2.81215436 19.42348944 -2.81215436 19.42348944 -3.20703125 17.09936523 C-4.29315736 14.77119936 -5.68320837 13.56174265 -7.625 11.890625 C-10.27219769 9.36301325 -10.98667701 8.66748687 -11.6875 4.953125 C-10.30656482 -0.98489627 -4.99697941 -0.02652913 0 0 Z " fill="#F97604" transform="translate(31.0625,68.734375)"/>
<path d="M0 0 C4.45526573 0.59403543 5.73750883 1.80764662 8.68359375 4.9921875 C9.75 6.5 9.75 6.5 9.75 8.5 C8.38875 8.685625 8.38875 8.685625 7 8.875 C2.68057627 11.03471187 1.92955453 13.25040916 0.36328125 17.69140625 C-0.60790879 22.13908549 0.00168178 26.06702794 0.75 30.5 C0.75 31.49 0.75 32.48 0.75 33.5 C2.73 33.005 2.73 33.005 4.75 32.5 C5.41 33.49 6.07 34.48 6.75 35.5 C9.45400904 36.34481088 9.45400904 36.34481088 12.5625 36.75 C13.60019531 36.92015625 14.63789062 37.0903125 15.70703125 37.265625 C18.655052 37.49268693 20.90316722 37.23670349 23.75 36.5 C23.75 37.16 23.75 37.82 23.75 38.5 C25.73 38.005 25.73 38.005 27.75 37.5 C28.08 34.86 28.41 32.22 28.75 29.5 C28.09 29.5 27.43 29.5 26.75 29.5 C26.75 28.51 26.75 27.52 26.75 26.5 C30.46249393 27.05975518 32.08951132 28.48025268 34.5625 31.25 C35.18769531 31.92546875 35.81289062 32.6009375 36.45703125 33.296875 C37.75 35.5 37.75 35.5 37.57421875 38.140625 C36.75 40.5 36.75 40.5 34.75 42.5 C31.98839603 42.712112 29.32961948 42.80397075 26.56640625 42.80078125 C25.7550975 42.80506638 24.94378876 42.8093515 24.1078949 42.81376648 C22.39054295 42.819514 20.67316665 42.82000694 18.95581055 42.81567383 C16.3262378 42.8125165 13.69779269 42.83595748 11.06835938 42.86132812 C9.40104309 42.86360132 7.73372377 42.86430452 6.06640625 42.86328125 C5.27883438 42.872491 4.49126251 42.88170074 3.67982483 42.89118958 C0.79047534 42.86667316 -1.63525376 42.80872586 -4.24707031 41.49707031 C-5.90086284 38.20397808 -5.65539908 34.78530151 -5.61328125 31.18359375 C-5.61377975 30.37132828 -5.61427826 29.55906281 -5.61479187 28.72218323 C-5.61245283 27.00657706 -5.60273428 25.29096736 -5.58618164 23.57543945 C-5.56255712 20.94386265 -5.56562562 18.31329674 -5.57226562 15.68164062 C-5.5666899 14.01561894 -5.55958068 12.34960153 -5.55078125 10.68359375 C-5.55169266 9.89399765 -5.55260406 9.10440155 -5.55354309 8.2908783 C-5.45636985 0.83944152 -5.45636985 0.83944152 0 0 Z " fill="#F85B01" transform="translate(74.25,19.5)"/>
<path d="M0 0 C1.18154663 -0.00287018 1.18154663 -0.00287018 2.38696289 -0.00579834 C4.05127278 -0.00715847 5.71559334 -0.00347399 7.37988281 0.00488281 C9.92797669 0.015585 12.47536556 0.00498199 15.0234375 -0.0078125 C16.64062656 -0.00649087 18.25781517 -0.00392842 19.875 0 C21.01884155 -0.00607269 21.01884155 -0.00607269 22.18579102 -0.01226807 C25.97248674 0.02131563 27.70898266 0.1132801 30.9375 2.265625 C31.22909149 5.15056431 31.33340537 7.81750437 31.30078125 10.703125 C31.30152901 11.9569397 31.30152901 11.9569397 31.30229187 13.23608398 C31.29994959 15.00474421 31.29021197 16.77340766 31.27368164 18.54199219 C31.25009361 21.25485932 31.25311867 23.96674395 31.25976562 26.6796875 C31.25418889 28.39583921 31.24707904 30.11198678 31.23828125 31.828125 C31.23964836 33.0500354 31.23964836 33.0500354 31.24104309 34.29663086 C31.16852158 40.03460342 31.16852158 40.03460342 28.9375 42.265625 C26.3125 42.890625 26.3125 42.890625 22.9375 42.265625 C19.93624419 39.89053047 17.31261913 37.26767913 14.9375 34.265625 C14.9375 33.605625 14.9375 32.945625 14.9375 32.265625 C20.5625 31.140625 20.5625 31.140625 23.9375 32.265625 C25.93968682 24.18537105 28.44520596 13.81424372 23.9375 6.265625 C22.31259046 6.23864311 20.68755367 6.21923743 19.0625 6.203125 C18.15757813 6.19152344 17.25265625 6.17992188 16.3203125 6.16796875 C13.9206415 6.10313243 13.9206415 6.10313243 11.9375 7.265625 C11.009375 7.059375 10.08125 6.853125 9.125 6.640625 C5.24531406 6.18419136 4.12344567 7.19906565 0.9375 9.265625 C-0.0525 8.935625 -1.0425 8.605625 -2.0625 8.265625 C-1.7325 7.275625 -1.4025 6.285625 -1.0625 5.265625 C-3.0425 6.255625 -3.0425 6.255625 -5.0625 7.265625 C-4.4025 9.245625 -3.7425 11.225625 -3.0625 13.265625 C-6.86082675 12.72300689 -8.75522487 11.31452427 -11.0625 8.265625 C-11.5 5.140625 -11.5 5.140625 -11.0625 2.265625 C-7.30792523 -0.23742484 -4.34684902 -0.02307757 0 0 Z " fill="#F84F01" transform="translate(31.0625,68.734375)"/>
<path d="M0 0 C3.0565422 1.15087408 4.81463567 2.01007922 7.0703125 4.328125 C7.64523438 4.88757813 8.22015625 5.44703125 8.8125 6.0234375 C10.78713982 9.13600535 11.06128956 11.52987665 11.1953125 15.203125 C9.39697266 17.92553711 9.39697266 17.92553711 6.734375 20.48046875 C6.26921478 20.93668106 5.80405457 21.39289337 5.32479858 21.8629303 C3.84107405 23.30864765 2.33165415 24.72386253 0.8203125 26.140625 C-0.18926052 27.11862863 -1.19709526 28.09843005 -2.203125 29.08007812 C-9.58181958 36.203125 -9.58181958 36.203125 -10.8046875 36.203125 C-11.16327189 32.34834282 -11.0801693 30.62553042 -8.9296875 27.328125 C-8.2284375 26.626875 -7.5271875 25.925625 -6.8046875 25.203125 C-6.1446875 25.203125 -5.4846875 25.203125 -4.8046875 25.203125 C-4.1446875 23.553125 -3.4846875 21.903125 -2.8046875 20.203125 C-2.1446875 20.203125 -1.4846875 20.203125 -0.8046875 20.203125 C-0.4746875 19.213125 -0.1446875 18.223125 0.1953125 17.203125 C0.6903125 16.72875 1.1853125 16.254375 1.6953125 15.765625 C3.43717221 13.95118781 3.77386263 12.64753423 4.1953125 10.203125 C3.298125 10.0484375 3.298125 10.0484375 2.3828125 9.890625 C-0.08712014 9.11436045 -1.12719985 8.13223579 -2.8046875 6.203125 C-3.1346875 7.853125 -3.4646875 9.503125 -3.8046875 11.203125 C-4.7946875 10.873125 -5.7846875 10.543125 -6.8046875 10.203125 C-7.145 11.37875 -7.145 11.37875 -7.4921875 12.578125 C-9.16320658 15.92016316 -10.35816083 16.00084826 -13.8046875 17.203125 C-15.0421875 18.2240625 -15.0421875 18.2240625 -16.3046875 19.265625 C-18.9232007 21.29497273 -20.55835038 21.83211504 -23.8046875 22.203125 C-20.75594041 16.81543565 -16.85381218 12.73748365 -12.5546875 8.328125 C-11.44673828 7.13316406 -11.44673828 7.13316406 -10.31640625 5.9140625 C-4.78461644 0.25544154 -4.78461644 0.25544154 0 0 Z " fill="#F85D00" transform="translate(110.8046875,8.796875)"/>
<path d="M0 0 C0.99 0.33 1.98 0.66 3 1 C2.02874721 7.31314314 -2.11614321 11.30410838 -7 15 C-7.33 15.66 -7.66 16.32 -8 17 C-8.66 17 -9.32 17 -10 17 C-9.34 19.64 -8.68 22.28 -8 25 C-4.56206661 24.81870185 -4.56206661 24.81870185 -1 24 C0.24174796 22.0998823 0.24174796 22.0998823 1 20 C1.598125 19.71125 2.19625 19.4225 2.8125 19.125 C5.30395424 18.02454117 5.30395424 18.02454117 7.4375 15.0625 C9.85094548 12.17813832 11.65438587 10.62759606 15 9 C15.66 9 16.32 9 17 9 C16.23419177 15.57944863 11.77245394 18.84992278 7.25 23.3125 C6.43789063 24.14845703 5.62578125 24.98441406 4.7890625 25.84570312 C3.99757813 26.63525391 3.20609375 27.42480469 2.390625 28.23828125 C1.66907227 28.96055908 0.94751953 29.68283691 0.20410156 30.42700195 C-2.46522729 32.3320181 -3.78691589 32.4845361 -7 32 C-9.67578125 29.98828125 -9.67578125 29.98828125 -12.3125 27.3125 C-13.19550781 26.44238281 -14.07851562 25.57226562 -14.98828125 24.67578125 C-17.28595705 21.61964936 -17.51153599 20.70732829 -17 17 C-15.43945313 14.87182617 -15.43945313 14.87182617 -13.28125 12.79296875 C-12.51425781 12.04208984 -11.74726563 11.29121094 -10.95703125 10.51757812 C-9.74080078 9.36418945 -9.74080078 9.36418945 -8.5 8.1875 C-7.68917969 7.39923828 -6.87835938 6.61097656 -6.04296875 5.79882812 C-4.03940041 3.85418827 -2.02511598 1.92214935 0 0 Z " fill="#F85900" transform="translate(26,90)"/>
<path d="M0 0 C0 0.66 0 1.32 0 2 C0.66 2 1.32 2 2 2 C2.81462612 8.73006499 3.13322938 15.35851242 2.8125 22.125 C2.75707031 23.38570312 2.70164063 24.64640625 2.64453125 25.9453125 C2 29 2 29 0.01171875 30.3046875 C-0.98408203 30.64886719 -0.98408203 30.64886719 -2 31 C-2.33 31.66 -2.66 32.32 -3 33 C-5.375 33.8125 -5.375 33.8125 -8 34 C-9.8125 32.6875 -9.8125 32.6875 -11 31 C-11 30.34 -11 29.68 -11 29 C-5.375 27.875 -5.375 27.875 -2 29 C0.00218682 20.91974605 2.50770596 10.54861872 -2 3 C-3.62490954 2.97301811 -5.24994633 2.95361243 -6.875 2.9375 C-7.77992187 2.92589844 -8.68484375 2.91429688 -9.6171875 2.90234375 C-12.0168585 2.83750743 -12.0168585 2.83750743 -14 4 C-14.928125 3.79375 -15.85625 3.5875 -16.8125 3.375 C-20.69218594 2.91856636 -21.81405433 3.93344065 -25 6 C-25.99 5.67 -26.98 5.34 -28 5 C-27.67 4.01 -27.34 3.02 -27 2 C-27.99 1.67 -28.98 1.34 -30 1 C-22.40652296 -4.06231803 -8.78818551 -0.81750563 0 0 Z " fill="#F96200" transform="translate(57,72)"/>
<path d="M0 0 C2.125 0.375 2.125 0.375 4 1 C4.33 2.32 4.66 3.64 5 5 C3.948125 5.0825 2.89625 5.165 1.8125 5.25 C-2.27047209 6.05320762 -4.0122727 7.19334709 -7 10 C-7 9.01 -7 8.02 -7 7 C-6.01 6.67 -5.02 6.34 -4 6 C-2.90833725 4.06669397 -2.90833725 4.06669397 -2 2 C-1.34 1.34 -0.68 0.68 0 0 Z " fill="#F84C00" transform="translate(109,9)"/>
<path d="M0 0 C0.99 0.33 1.98 0.66 3 1 C1.50260417 2.20442708 0.00520833 3.40885417 -1.4921875 4.61328125 C-3.25292107 6.12270545 -3.25292107 6.12270545 -5 9 C-5.66 9.474375 -6.32 9.94875 -7 10.4375 C-9.16504774 12.12894355 -9.96157431 13.49047124 -11 16 C-11.34375 13.86328125 -11.34375 13.86328125 -11 11 C-9.21336981 8.8508231 -7.53604497 7.06096153 -5.5 5.1875 C-4.97535156 4.68541016 -4.45070313 4.18332031 -3.91015625 3.66601562 C-2.61777468 2.43237867 -1.31030401 1.21458375 0 0 Z " fill="#F95F04" transform="translate(20,96)"/>
<path d="M0 0 C1.14926266 0.95421808 2.29430541 1.91352045 3.4375 2.875 C4.07558594 3.40867187 4.71367188 3.94234375 5.37109375 4.4921875 C7 6 7 6 8 8 C7.34 8.66 6.68 9.32 6 10 C3.69 7.36 1.38 4.72 -1 2 C-0.67 1.34 -0.34 0.68 0 0 Z " fill="#F96011" transform="translate(113,10)"/>
<path d="M0 0 C2.31 1.98 4.62 3.96 7 6 C5.68 6.33 4.36 6.66 3 7 C3 6.34 3 5.68 3 5 C2.34 5 1.68 5 1 5 C1 4.34 1 3.68 1 3 C0.34 2.67 -0.32 2.34 -1 2 C-0.67 1.34 -0.34 0.68 0 0 Z " fill="#F96410" transform="translate(77,20)"/>
<path d="M0 0 C2.88575819 0.39803561 3.82189513 0.79009069 5.75 3.0625 C6.1625 3.701875 6.575 4.34125 7 5 C6.01 5.495 6.01 5.495 5 6 C4.54625 5.505 4.0925 5.01 3.625 4.5 C2.12364481 2.77390663 2.12364481 2.77390663 0 3 C0 2.01 0 1.02 0 0 Z " fill="#F9690D" transform="translate(101,46)"/>
</svg>
